<?xml version="1.0" encoding="UTF-8"?><svg version="1.1" width="288px" height="288px" viewBox="0 0 288.0 288.0" xmlns="http://www.w3.org/2000/svg" xmlns:xlink="http://www.w3.org/1999/xlink"><defs><clipPath id="i0"><path d="M1495,0 L1495,531 L0,531 L0,0 L1495,0 Z"></path></clipPath><clipPath id="i1"><path d="M111.564453,41.9843069 C112.578462,44.833135 116.85262,57.6530765 122.229787,73.7953023 L123.219127,76.7653816 C123.552639,77.7666243 123.889722,78.77859 124.229896,79.7997986 L125.25921,82.8896726 C126.815651,87.5616363 128.424961,92.3907954 130.043383,97.2422752 L131.66322,102.0962 C140.481221,128.509237 149.13692,154.251252 150.568359,157.555596 C153.489664,164.299154 158.217773,167.337823 165.027344,165.398369 C171.836914,163.458916 174.68457,154.038994 175.938477,147.510674 C176.774414,143.158461 183.367839,97.2880179 195.71875,9.89934598 C196.520218,5.10430162 197.7904,2.2071662 199.529297,1.20793973 C200.849811,0.449129577 202.871586,0.401995608 204.935017,0.409940616 L205.96715,0.415463233 C206.081539,0.415911336 206.195716,0.41619168 206.30957,0.41619168 L209.963086,0.41691767 C215.396389,0.42054762 217.747621,0.44232732 219.977351,0.573005517 L220.31127,0.593435329 L220.645586,0.61556668 C221.371973,0.66541043 222.116797,0.727715118 222.981689,0.805595977 C227.306152,1.19500027 227.080677,3.58220731 226.701416,9.89934598 C226.322155,16.2164846 207.521485,139.102899 202.772461,157.555596 C201.050277,164.247273 198.703554,172.239216 193.847168,178.315606 C189.558155,183.682089 183.650391,188.136651 178.025391,190.495049 C166.223457,195.443256 145.150879,196.795342 137.141357,191.564385 C129.131836,186.333428 126.382324,182.581963 117.923828,164.48333 C113.804445,155.669092 108.279528,138.820227 100.814941,115.285088 C96.6700132,102.21652 88.859629,77.7829265 77.3837891,41.9843069 C76.1761068,34.8176402 71.5436198,31.2343069 63.4863281,31.2343069 C55.4290365,31.2343069 50.8964844,37.9377574 49.8886719,51.3446585 L29.7021484,190.495049 C29.2347005,194.460544 26.7750651,196.443291 22.3232422,196.443291 L1.74414062,196.443291 C0.581380208,196.025323 0,193.14544 0,187.803643 C0,179.790948 19.0092773,50.6635061 20.8037109,41.9843069 C22.5981445,33.3051077 31.6171875,3.48528348 66.1621094,0.207939727 C100.707031,-3.06940402 108.491699,33.3514944 111.564453,41.9843069 Z"></path></clipPath><clipPath id="i2"><path d="M71.1343687,0 C73.371962,0.0321951658 74.8654515,0.689724554 75.6148374,1.97258816 C76.3642233,3.25545178 76.585903,5.53409761 76.2798765,8.80852566 L55.4195249,148.076592 C55.173326,149.876071 54.8038599,150.775811 54.3111265,150.775811 C53.8183931,150.775811 53.2836437,149.876071 52.7068784,148.076592 C29.4347913,77.4409667 16.9920016,39.7303547 15.3785093,34.9447561 C14.4581369,32.2149428 14.0631769,31.0115376 13.6841699,29.9928348 L13.6000017,29.7689514 C13.0097633,28.215416 12.3668112,26.8683264 9.75350929,20.6774221 C7.20829342,14.6478135 3.4917454,9.78162598 0.489593279,3.87834988 C0.17510462,3.25995571 0.0119068601,1.96717241 0,0 L71.1343687,0 Z"></path></clipPath><clipPath id="i3"><path d="M19.4394531,7.76038978 C20.215332,3.19502113 21.5483417,-0.627442234 22.4541016,0.0861344063 C23.0579415,0.561852166 24.1989734,3.18123693 25.8771973,7.9442887 C52.0163188,89.5167171 66.2167583,132.291701 68.4785156,136.26924 C70.740273,140.246779 73.3610412,143.806349 76.3408203,146.947951 C76.5540613,147.86669 76.5540613,148.541007 76.3408203,148.9709 C76.1275793,149.400793 75.6493892,149.690507 74.90625,149.840041 L2.29785156,149.840041 C1.71798753,149.635074 1.2275904,149.027978 0.826660156,148.018752 C0.425729913,147.009525 0.150176528,145.688562 0,144.055861 C12.4423828,56.2357926 18.9222005,10.8039689 19.4394531,7.76038978 Z"></path></clipPath></defs><g transform="translate(-103.0 -138.0)"><g clip-path="url(#i0)"><g transform="translate(133.94042968750009 183.7188180855016)"><g clip-path="url(#i1)"><polygon points="0,0 226.888788,0 226.888788,196.443291 0,196.443291 0,0" stroke="none" fill="#916DDE"></polygon></g><g transform="translate(108.4925844557965 0.0)"><g clip-path="url(#i2)"><polygon points="0,0 76.4129793,0 76.4129793,150.775811 0,150.775811 0,0" stroke="none" fill="rgba(146, 109, 222, 0.507324)"></polygon></g></g><g transform="translate(42.57324218749977 45.60325063324045)"><g clip-path="url(#i3)"><polygon points="0,-1.38777878e-17 76.5007511,-1.38777878e-17 76.5007511,149.840041 0,149.840041 0,-1.38777878e-17" stroke="none" fill="rgba(146, 109, 222, 0.507324)"></polygon></g></g></g></g></g></svg>